HIERARCHY
ROOT Hips
{
	OFFSET 2.433734 86.173073 3.643662
	CHANNELS 6 Xposition Yposition Zposition Zrotation Yrotation Xrotation 
	JOINT Spine
	{
		OFFSET -0.000000 8.814246 -2.080107
		CHANNELS 3 Zrotation Yrotation Xrotation
		JOINT Spine1
		{
			OFFSET 0.000000 8.844141 0.000000
			CHANNELS 3 Zrotation Yrotation Xrotation
			JOINT Spine2
			{
				OFFSET 0.000000 11.682268 -0.000000
				CHANNELS 3 Zrotation Yrotation Xrotation
				JOINT Spine3
				{
					OFFSET -0.000000 11.746700 -0.000000
					CHANNELS 3 Zrotation Yrotation Xrotation
					JOINT Neck
					{
						OFFSET -0.000000 17.658264 0.000000
						CHANNELS 3 Zrotation Yrotation Xrotation
						JOINT Neck1
						{
							OFFSET -0.000000 5.101515 -0.000000
							CHANNELS 3 Zrotation Yrotation Xrotation
							JOINT Head
							{
								OFFSET 0.000000 5.101515 -0.000000
								CHANNELS 3 Zrotation Yrotation Xrotation
								JOINT HeadEnd
								{
									OFFSET -0.000000 11.655085 -0.000000
									CHANNELS 3 Zrotation Yrotation Xrotation
									End Site
									{
										OFFSET 0.000000 0.000000 0.000000
									}
								}
							}
						}
					}
					JOINT RightShoulder
					{
						OFFSET -2.625389 11.175210 -0.000000
						CHANNELS 3 Zrotation Yrotation Xrotation
						JOINT RightArm
						{
							OFFSET -0.000000 10.434715 0.000000
							CHANNELS 3 Zrotation Yrotation Xrotation
							JOINT RightForeArm
							{
								OFFSET 0.000000 29.628420 -0.000000
								CHANNELS 3 Zrotation Yrotation Xrotation
								JOINT RightHand
								{
									OFFSET 0.000000 22.857611 0.000000
									CHANNELS 3 Zrotation Yrotation Xrotation
									JOINT RightHandThumb1
									{
										OFFSET -2.867323 3.959563 2.944291
										CHANNELS 3 Zrotation Yrotation Xrotation
										JOINT RightHandThumb2
										{
											OFFSET 0.000000 3.350399 0.000000
											CHANNELS 3 Zrotation Yrotation Xrotation
											JOINT RightHandThumb3
											{
												OFFSET -0.000000 3.756509 -0.000000
												CHANNELS 3 Zrotation Yrotation Xrotation
												JOINT RightHandThumb4
												{
													OFFSET -0.000000 3.147345 -0.000000
													CHANNELS 3 Zrotation Yrotation Xrotation
													End Site
													{
														OFFSET 0.000000 0.000000 0.000000
													}
												}
											}
										}
									}
									JOINT RightHandIndex1
									{
										OFFSET -0.086752 10.030893 2.345280
										CHANNELS 3 Zrotation Yrotation Xrotation
										JOINT RightHandIndex2
										{
											OFFSET -0.000000 4.061090 0.000000
											CHANNELS 3 Zrotation Yrotation Xrotation
											JOINT RightHandIndex3
											{
												OFFSET 0.000000 3.248873 0.000000
												CHANNELS 3 Zrotation Yrotation Xrotation
												JOINT RightHandIndex4
												{
													OFFSET 0.000000 2.639709 0.000000
													CHANNELS 3 Zrotation Yrotation Xrotation
													End Site
													{
														OFFSET 0.000000 0.000000 0.000000
													}
												}
											}
										}
									}
									JOINT RightHandMiddle1
									{
										OFFSET 0.104102 9.502952 0.006768
										CHANNELS 3 Zrotation Yrotation Xrotation
										JOINT RightHandMiddle2
										{
											OFFSET -0.000000 4.568727 -0.000000
											CHANNELS 3 Zrotation Yrotation Xrotation
											JOINT RightHandMiddle3
											{
												OFFSET -0.000000 3.654981 0.000000
												CHANNELS 3 Zrotation Yrotation Xrotation
												JOINT RightHandMiddle4
												{
													OFFSET 0.000000 2.741236 0.000000
													CHANNELS 3 Zrotation Yrotation Xrotation
													End Site
													{
														OFFSET 0.000000 0.000000 0.000000
													}
												}
											}
										}
									}
									JOINT RightHandRing1
									{
										OFFSET 0.086752 8.921708 -2.267442
										CHANNELS 3 Zrotation Yrotation Xrotation
										JOINT RightHandRing2
										{
											OFFSET -0.000000 4.061090 -0.000000
											CHANNELS 3 Zrotation Yrotation Xrotation
											JOINT RightHandRing3
											{
												OFFSET 0.000000 3.654981 0.000000
												CHANNELS 3 Zrotation Yrotation Xrotation
												JOINT RightHandRing4
												{
													OFFSET -0.000000 2.741236 -0.000000
													CHANNELS 3 Zrotation Yrotation Xrotation
													End Site
													{
														OFFSET 0.000000 0.000000 0.000000
													}
												}
											}
										}
									}
									JOINT RightHandPinky1
									{
										OFFSET -0.173504 7.976997 -4.467199
										CHANNELS 3 Zrotation Yrotation Xrotation
										JOINT RightHandPinky2
										{
											OFFSET 0.000000 3.350399 0.000000
											CHANNELS 3 Zrotation Yrotation Xrotation
											JOINT RightHandPinky3
											{
												OFFSET 0.000000 2.842763 0.000000
												CHANNELS 3 Zrotation Yrotation Xrotation
												JOINT RightHandPinky4
												{
													OFFSET 0.000000 2.639709 0.000000
													CHANNELS 3 Zrotation Yrotation Xrotation
													End Site
													{
														OFFSET 0.000000 0.000000 0.000000
													}
												}
											}
										}
									}
									JOINT RightForeArmEnd
									{
										OFFSET 0.000000 0.000000 0.000000
										CHANNELS 3 Zrotation Yrotation Xrotation
										End Site
										{
											OFFSET 0.000000 0.000000 0.000000
										}
									}
								}
								JOINT RightArmEnd
								{
									OFFSET 0.000000 0.000000 0.000000
									CHANNELS 3 Zrotation Yrotation Xrotation
									End Site
									{
										OFFSET 0.000000 0.000000 0.000000
									}
								}
							}
						}
					}
					JOINT LeftShoulder
					{
						OFFSET 2.625389 11.175210 -0.000000
						CHANNELS 3 Zrotation Yrotation Xrotation
						JOINT LeftArm
						{
							OFFSET 0.000000 10.813635 0.000000
							CHANNELS 3 Zrotation Yrotation Xrotation
							JOINT LeftForeArm
							{
								OFFSET 0.000000 28.724781 0.000000
								CHANNELS 3 Zrotation Yrotation Xrotation
								JOINT LeftHand
								{
									OFFSET 0.644384 25.716167 -0.328871
									CHANNELS 3 Zrotation Yrotation Xrotation
									JOINT LeftHandThumb1
									{
										OFFSET 2.867323 3.959563 2.944291
										CHANNELS 3 Zrotation Yrotation Xrotation
										JOINT LeftHandThumb2
										{
											OFFSET 0.000000 3.350399 0.000000
											CHANNELS 3 Zrotation Yrotation Xrotation
											JOINT LeftHandThumb3
											{
												OFFSET -0.000000 3.756509 -0.000000
												CHANNELS 3 Zrotation Yrotation Xrotation
												JOINT LeftHandThumb4
												{
													OFFSET -0.000000 3.100000 0.000000
													CHANNELS 3 Zrotation Yrotation Xrotation
													End Site
													{
														OFFSET 0.000000 0.000000 0.000000
													}
												}
											}
										}
									}
									JOINT LeftHandIndex1
									{
										OFFSET 0.086752 10.030893 2.345280
										CHANNELS 3 Zrotation Yrotation Xrotation
										JOINT LeftHandIndex2
										{
											OFFSET -0.000000 4.061090 0.000000
											CHANNELS 3 Zrotation Yrotation Xrotation
											JOINT LeftHandIndex3
											{
												OFFSET 0.000000 3.248873 0.000000
												CHANNELS 3 Zrotation Yrotation Xrotation
												JOINT LeftHandIndex4
												{
													OFFSET -0.000000 2.639709 0.000000
													CHANNELS 3 Zrotation Yrotation Xrotation
													End Site
													{
														OFFSET 0.000000 0.000000 0.000000
													}
												}
											}
										}
									}
									JOINT LeftHandMiddle1
									{
										OFFSET -0.104102 9.502952 0.006768
										CHANNELS 3 Zrotation Yrotation Xrotation
										JOINT LeftHandMiddle2
										{
											OFFSET -0.000000 4.568727 0.000000
											CHANNELS 3 Zrotation Yrotation Xrotation
											JOINT LeftHandMiddle3
											{
												OFFSET 0.000000 3.654981 -0.000000
												CHANNELS 3 Zrotation Yrotation Xrotation
												JOINT LeftHandMiddle4
												{
													OFFSET -0.000000 2.741236 0.000000
													CHANNELS 3 Zrotation Yrotation Xrotation
													End Site
													{
														OFFSET 0.000000 0.000000 0.000000
													}
												}
											}
										}
									}
									JOINT LeftHandRing1
									{
										OFFSET -0.086752 8.921708 -2.267442
										CHANNELS 3 Zrotation Yrotation Xrotation
										JOINT LeftHandRing2
										{
											OFFSET -0.000000 4.061090 0.000000
											CHANNELS 3 Zrotation Yrotation Xrotation
											JOINT LeftHandRing3
											{
												OFFSET 0.000000 3.654981 0.000000
												CHANNELS 3 Zrotation Yrotation Xrotation
												JOINT LeftHandRing4
												{
													OFFSET 0.000000 2.741236 -0.000000
													CHANNELS 3 Zrotation Yrotation Xrotation
													End Site
													{
														OFFSET 0.000000 0.000000 0.000000
													}
												}
											}
										}
									}
									JOINT LeftHandPinky1
									{
										OFFSET 0.173504 7.976997 -4.467199
										CHANNELS 3 Zrotation Yrotation Xrotation
										JOINT LeftHandPinky2
										{
											OFFSET 0.000000 3.350399 -0.000000
											CHANNELS 3 Zrotation Yrotation Xrotation
											JOINT LeftHandPinky3
											{
												OFFSET -0.000000 2.842763 0.000000
												CHANNELS 3 Zrotation Yrotation Xrotation
												JOINT LeftHandPinky4
												{
													OFFSET -0.000000 2.639709 0.000000
													CHANNELS 3 Zrotation Yrotation Xrotation
													End Site
													{
														OFFSET 0.000000 0.000000 0.000000
													}
												}
											}
										}
									}
									JOINT LeftForeArmEnd
									{
										OFFSET 0.000000 0.000000 0.000000
										CHANNELS 3 Zrotation Yrotation Xrotation
										End Site
										{
											OFFSET 0.000000 0.000000 0.000000
										}
									}
								}
								JOINT LeftArmEnd
								{
									OFFSET 0.000000 0.000000 0.000000
									CHANNELS 3 Zrotation Yrotation Xrotation
									End Site
									{
										OFFSET 0.000000 0.000000 0.000000
									}
								}
							}
						}
					}
				}
			}
		}
	}
	JOINT RightUpLeg
	{
		OFFSET -11.289943 0.000000 0.000000
		CHANNELS 3 Zrotation Yrotation Xrotation
		JOINT RightLeg
		{
			OFFSET -0.000000 -38.200325 0.000000
			CHANNELS 3 Zrotation Yrotation Xrotation
			JOINT RightFoot
			{
				OFFSET -0.000000 -39.900856 -0.000000
				CHANNELS 3 Zrotation Yrotation Xrotation
				JOINT RightToeBase
				{
					OFFSET -0.000000 -0.000000 15.261641
					CHANNELS 3 Zrotation Yrotation Xrotation
					JOINT RightToeBaseEnd
					{
						OFFSET -0.000000 0.000000 7.370709
						CHANNELS 3 Zrotation Yrotation Xrotation
						End Site
						{
							OFFSET 0.000000 0.000000 0.000000
						}
					}
				}
				JOINT RightLegEnd
				{
					OFFSET 0.000000 0.000000 0.000000
					CHANNELS 3 Zrotation Yrotation Xrotation
					End Site
					{
						OFFSET 0.000000 0.000000 0.000000
					}
				}
			}
			JOINT RightUpLegEnd
			{
				OFFSET 0.000000 0.000000 0.000000
				CHANNELS 3 Zrotation Yrotation Xrotation
				End Site
				{
					OFFSET 0.000000 0.000000 0.000000
				}
			}
		}
	}
	JOINT LeftUpLeg
	{
		OFFSET 11.315661 0.000000 -0.000000
		CHANNELS 3 Zrotation Yrotation Xrotation
		JOINT LeftLeg
		{
			OFFSET -0.000000 -38.200325 -0.000000
			CHANNELS 3 Zrotation Yrotation Xrotation
			JOINT LeftFoot
			{
				OFFSET 0.000000 -39.900856 -0.000000
				CHANNELS 3 Zrotation Yrotation Xrotation
				JOINT LeftToeBase
				{
					OFFSET 0.000000 -0.000000 15.261641
					CHANNELS 3 Zrotation Yrotation Xrotation
					JOINT LeftToeBaseEnd
					{
						OFFSET 0.000000 -0.000000 7.539996
						CHANNELS 3 Zrotation Yrotation Xrotation
						End Site
						{
							OFFSET 0.000000 0.000000 0.000000
						}
					}
				}
				JOINT LeftLegEnd
				{
					OFFSET 0.000000 0.000000 0.000000
					CHANNELS 3 Zrotation Yrotation Xrotation
					End Site
					{
						OFFSET 0.000000 0.000000 0.000000
					}
				}
			}
			JOINT LeftUpLegEnd
			{
				OFFSET 0.000000 0.000000 0.000000
				CHANNELS 3 Zrotation Yrotation Xrotation
				End Site
				{
					OFFSET 0.000000 0.000000 0.000000
				}
			}
		}
	}
}
MOTION
Frames: 4
Frame Time: 0.016667
2.433734 86.173073 3.643662 4.299845 0.534881 -7.077621 -8.138910 1.415882 -0.501093 14.969744 -4.986477 10.393132 -18.977310 3.765862 1.451039 4.191943 -0.820174 -0.026746 5.330935 5.319360 10.245767 -3.058134 4.096265 -7.856699 -0.884414 2.925234 -23.483372 0.000000 0.000000 0.000000 96.794540 -0.452405 3.697086 71.595825 -34.005363 -10.252324 2.613487 16.506643 33.556507 4.896970 16.739386 -10.989886 10.039282 -1.787270 40.137463 0.000000 0.000000 -24.480000 0.000000 0.000000 -16.999998 0.000000 0.000000 0.000000 13.474064 0.000000 -9.998755 9.431845 0.000000 0.000000 9.431845 0.000000 0.000000 0.000000 0.000000 0.000000 14.310910 -0.000000 -12.117423 10.017637 0.000000 0.000000 10.017637 0.000000 0.000000 0.000000 0.000000 0.000000 16.702457 -0.000000 -13.374759 11.691720 0.000000 0.000000 11.691720 0.000000 0.000000 0.000000 0.000000 0.000000 18.303183 0.000000 -16.208984 12.812225 0.000000 0.000000 12.812225 0.000000 0.000000 0.000000 0.000000 0.000000 0.000000 0.000000 0.000000 0.000000 0.000000 0.000000 -93.419373 0.305430 3.692236 -58.119640 34.383701 -1.479928 -3.132393 -16.410662 54.021275 0.345754 -19.841892 -14.396711 -7.651653 1.517517 41.228924 0.000000 0.000000 -18.719999 0.000000 0.000000 -13.000000 0.000000 0.000000 0.000000 -7.052994 -0.000000 -11.588723 -4.937097 0.000000 0.000000 -4.937097 0.000000 0.000000 0.000000 0.000000 0.000000 -8.928932 0.000000 -13.154870 -6.250252 0.000000 0.000000 -6.250252 0.000000 0.000000 0.000000 0.000000 0.000000 -13.184094 0.000000 -12.977899 -9.228864 0.000000 0.000000 -9.228864 0.000000 0.000000 0.000000 0.000000 0.000000 -16.410326 -0.000000 -13.409651 -11.487226 0.000000 0.000000 -11.487226 0.000000 0.000000 0.000000 0.000000 0.000000 0.000000 0.000000 0.000000 0.000000 0.000000 0.000000 -16.555935 3.881752 -2.063656 -0.437959 -1.141036 20.999811 8.242569 -11.888932 17.012327 -0.798321 -0.807249 -27.538485 0.000000 0.000000 0.000000 0.000000 0.000000 0.000000 0.000000 0.000000 0.000000 -1.257158 -2.234490 1.752836 0.201865 0.647150 17.324553 2.536021 0.751004 14.193522 -0.373871 0.147749 -28.911346 0.000000 0.000000 0.000000 0.000000 0.000000 0.000000 0.000000 0.000000 0.000000 
0.905319 86.385857 3.500394 3.438732 1.303016 -8.951195 -2.908572 0.630916 5.954523 5.729585 -1.430141 3.977501 -8.478793 2.193584 8.566113 -0.583475 -0.951383 -0.597325 1.167309 6.138446 8.966129 -3.056632 3.828139 -6.983753 -0.508780 3.264803 -21.673985 0.000000 0.000000 0.000000 96.416702 -1.386839 3.432148 70.683449 -33.776031 -9.567361 1.942274 19.634638 37.313461 2.724138 16.517708 -11.693727 10.328330 -1.764769 40.071774 -0.000053 0.000021 -25.304724 0.000028 0.000046 -17.484646 -0.000003 0.000004 -0.000027 13.182289 0.976050 -11.206248 9.997420 0.027597 -0.243226 10.300982 0.088342 -0.270100 -0.000041 0.000020 0.000007 14.286538 0.396866 -11.963243 10.454832 -0.025275 -0.137915 10.407454 0.038647 -0.088818 -0.000009 0.000036 -0.000000 17.608145 -0.530666 -11.383499 12.107854 0.026880 0.168880 12.054917 -0.064974 0.137704 -0.000017 -0.000536 0.000024 19.563114 -1.492813 -12.859495 13.202257 -0.070824 0.796950 12.950037 -0.270275 0.602238 0.000214 -0.000005 0.000019 0.000000 0.000000 0.000000 0.000000 0.000000 0.000000 -92.126671 0.299164 4.368283 -55.471657 32.068523 3.601129 -2.548095 -13.482158 48.729710 -2.563749 -20.786707 -15.238718 -7.571818 1.498579 41.296314 0.000010 0.000006 -18.448566 -0.000245 -0.000032 -12.759974 -0.001170 -0.000017 0.001362 -5.356082 1.079675 -11.964035 -5.931468 -0.007691 0.110068 -6.115258 0.068124 0.088053 0.000030 0.000845 0.000001 -7.354819 0.452650 -12.473619 -6.915917 -0.052889 0.072903 -6.607584 0.020602 0.053820 -0.000850 -0.000055 -0.000279 -12.724532 -0.542335 -10.867582 -9.693478 0.079190 -0.167762 -9.597251 -0.038743 -0.114108 0.000990 0.000010 0.000006 -16.239567 -1.456815 -10.412171 -11.736254 0.079594 -0.578022 -11.583414 -0.154497 -0.500542 0.000226 0.000016 -0.000042 0.000000 0.000000 0.000000 0.000000 0.000000 0.000000 -14.624650 1.784811 -0.392297 -0.405255 -1.215450 20.984558 7.467546 -8.030098 17.223679 -0.627160 -0.316513 -30.594389 0.000000 0.000000 0.000000 0.000000 0.000000 0.000000 0.000000 0.000000 0.000000 0.393311 -1.330146 5.491663 0.256281 1.012639 15.494263 0.719834 -0.344865 15.382557 -0.369967 -0.320040 -29.573095 0.000000 0.000000 0.000000 0.000000 0.000000 0.000000 0.000000 0.000000 0.000000 
-0.189470 86.470749 3.731742 2.887107 1.785553 -9.204276 -2.467092 0.562528 6.172329 5.726532 -1.424152 3.858091 -8.150482 2.009465 8.702001 -0.525161 -0.939267 -0.227765 1.673414 5.816642 8.652660 -3.125942 3.584339 -7.010442 -0.557063 3.241246 -21.498238 0.000000 0.000000 0.000000 96.173798 -1.415179 3.675486 69.801537 -34.803921 -8.891450 1.873698 19.414516 37.069351 2.462399 16.906893 -12.256680 10.402635 -1.780418 40.035076 -0.000040 0.000039 -25.444843 0.000020 0.000036 -17.583782 0.000010 0.000009 -0.000046 13.676067 0.904240 -10.779948 10.228528 0.020835 -0.227023 10.536046 0.077115 -0.264136 -0.000020 0.000026 -0.000002 14.612065 0.369978 -11.670669 10.637584 -0.025834 -0.131710 10.578874 0.035021 -0.085999 0.000001 -0.000003 -0.000009 17.737051 -0.495113 -11.100770 12.237500 0.026512 0.158350 12.160408 -0.058860 0.129443 -0.000025 -0.000773 0.000021 19.391653 -1.396381 -12.674176 13.297846 -0.056883 0.778274 13.041186 -0.246618 0.582261 0.000254 -0.000005 -0.000006 0.000000 0.000000 0.000000 0.000000 0.000000 0.000000 -92.141083 0.343847 4.430245 -56.162334 32.283863 3.573680 -2.517739 -13.483659 48.295471 -2.727869 -19.434992 -15.695038 -7.630178 1.506420 41.254898 -0.000006 0.000020 -18.732471 -0.000223 -0.000037 -12.940944 -0.001129 -0.000016 0.000616 -5.844449 1.010094 -11.777739 -6.119243 -0.011606 0.098858 -6.324093 0.057253 0.084960 0.000033 0.001191 -0.000004 -7.682616 0.425367 -12.323339 -7.093551 -0.052068 0.065541 -6.776211 0.018127 0.048568 -0.000670 -0.000064 -0.000289 -12.893554 -0.509662 -10.652273 -9.829356 0.078815 -0.150670 -9.775685 -0.033524 -0.102255 0.000883 0.000016 0.000006 -16.439533 -1.375473 -10.035542 -11.800123 0.090901 -0.506967 -11.674097 -0.134351 -0.458080 0.000349 0.000022 -0.000043 0.000000 0.000000 0.000000 0.000000 0.000000 0.000000 -13.151739 1.357420 0.745983 -0.379388 -1.197896 20.418577 6.685409 -8.326275 16.762455 -0.601370 -0.264725 -30.030203 0.000000 0.000000 0.000000 0.000000 0.000000 0.000000 0.000000 0.000000 0.000000 1.846316 -1.749812 6.116564 0.284710 1.114711 15.384274 -0.115869 -0.337086 15.387275 -0.204619 -0.368640 -29.463659 0.000000 0.000000 0.000000 0.000000 0.000000 0.000000 0.000000 0.000000 0.000000 
-1.221439 86.532379 3.921442 2.325171 2.374785 -9.357441 -2.032153 0.497129 6.345996 5.784962 -1.422385 3.737981 -7.820242 1.828602 8.856975 -0.428015 -0.953365 -0.001662 2.345287 5.381382 8.488885 -3.181017 3.323111 -7.030796 -0.528759 3.260138 -21.433727 0.000000 0.000000 0.000000 95.903976 -1.427814 3.717891 69.414543 -35.421631 -8.379810 1.813831 19.181046 36.707203 2.058607 16.723482 -12.453400 10.414554 -1.781564 40.038982 -0.000037 0.000040 -25.408783 0.000019 0.000036 -17.551012 0.000013 0.000009 -0.000047 13.920510 0.862050 -10.473933 10.345798 0.013448 -0.219677 10.643101 0.067706 -0.261437 -0.000017 0.000026 -0.000006 14.730313 0.353279 -11.464981 10.717087 -0.027046 -0.129969 10.646581 0.032001 -0.085597 0.000004 -0.000000 -0.000009 17.685812 -0.472851 -10.901667 12.279762 0.029832 0.157841 12.197083 -0.053462 0.130359 -0.000023 -0.000787 0.000022 19.048367 -1.339334 -12.514543 13.272256 -0.038203 0.790991 13.023509 -0.226231 0.590190 0.000271 -0.000007 -0.000017 0.000000 0.000000 0.000000 0.000000 0.000000 0.000000 -91.998268 0.360587 4.366429 -57.112793 32.387135 3.235991 -2.457948 -13.296402 48.121304 -2.609867 -18.450821 -15.871428 -7.662160 1.503238 41.240013 -0.000009 0.000023 -18.896025 -0.000209 -0.000039 -13.053666 -0.001313 -0.000019 0.000040 -6.171719 0.970309 -11.543756 -6.262921 -0.015151 0.107979 -6.491782 0.050190 0.098386 0.000032 0.001466 -0.000005 -7.906778 0.408618 -12.108237 -7.225978 -0.051207 0.066485 -6.886569 0.016784 0.051133 -0.000581 -0.000067 -0.000292 -12.965763 -0.490425 -10.427732 -9.905380 0.079156 -0.143067 -9.868207 -0.029799 -0.097721 0.000559 0.000014 0.000005 -16.496931 -1.334033 -9.740525 -11.813825 0.103046 -0.455072 -11.680491 -0.117931 -0.424435 0.000329 0.000018 -0.000041 0.000000 0.000000 0.000000 0.000000 0.000000 0.000000 -11.722866 0.704634 1.795754 -0.354923 -1.156485 19.957497 5.932568 -9.167171 16.355644 -0.583240 -0.263721 -29.646473 0.000000 0.000000 0.000000 0.000000 0.000000 0.000000 0.000000 0.000000 0.000000 3.300756 -2.238544 6.315597 0.309896 1.174018 15.672338 -0.882417 -0.559200 15.468998 -0.083828 -0.371911 -29.570913 0.000000 0.000000 0.000000 0.000000 0.000000 0.000000 0.000000 0.000000 0.000000 
